<!--?xml version="1.0" encoding="utf-8"?-->
<!-- Svg Vector Icons : http://www.onlinewebfonts.com/icon -->

<svg version="1.1" xmlns="http://www.w3.org/2000/svg" xmlns:xlink="http://www.w3.org/1999/xlink" x="0px" y="0px" viewBox="0 0 256 256" enable-background="new 0 0 256 256" xml:space="preserve">
<metadata> Svg Vector Icons : http://www.onlinewebfonts.com/icon </metadata>
<g><g><g>
<path fill="#000000" stroke="#000000" stroke-width="4" data-title="Layer 0" xs="0" d="M25.9,25.8c-7.5,1.8-12.2,6-14.8,13L10,42v63v63l1.1,2.8c2.5,6.1,7.5,10.9,13.2,12.7c3.1,0.9,4.5,1,40.3,1c20.4,0,37.1,0.1,37.1,0.3c0,0.2-8.3,8.7-18.5,18.9c-16.7,16.8-18.5,18.7-18.5,20.1c0,3.5,2.5,6,6,6H73l17.6-17.6l17.6-17.6v14.8c0,8.9,0.2,15.5,0.5,16.6c1.1,4.2,7,5.2,9.9,1.6c0.8-0.9,0.9-2.6,0.9-16.9c0-8.7,0.1-15.9,0.3-15.9c0.2,0,8.3,7.9,17.9,17.5c16.8,16.8,17.6,17.5,19.3,17.5c2.5,0,4.4-1,5.5-3.1c1.9-3.4,2-3.3-17.9-23.2c-10-10-18.2-18.4-18.2-18.6s13.2-0.4,29.4-0.5l29.4-0.1l-0.1-5.4l-0.1-5.4l-78.6-0.2c-73.1-0.2-78.8-0.3-80.2-1.1c-2.1-1.2-4-3.5-4.6-5.8c-0.3-1.3-0.4-21.6-0.4-62.4l0.1-60.5l1.1-2.1c1.1-2,3.4-4.1,5.3-4.8c0.5-0.2,37.8-0.3,82.8-0.3c90,0,83.8-0.2,86.7,3l1.3,1.5l2.5-1.2c1.4-0.6,3.3-1.3,4.5-1.5c3.3-0.5,3.5-0.8,2-3.3c-1.8-3-5.8-6.6-9.1-8.2l-2.8-1.3l-83.4-0.1C42.2,25.1,28.3,25.2,25.9,25.8z"/>
<path fill="#000000" stroke="#000000" stroke-width="2" data-title="Layer 1" xs="1" d="M207.4,46.1c-4.9,1.2-8.9,4.8-10.6,9.3c-2.1,5.6-0.5,12.6,3.8,16.4c6,5.2,15,5.2,20.5-0.2c3.3-3.2,4.5-6.2,4.5-10.9c0-4.6-1.3-7.6-4.5-10.7C217.8,46.8,211.6,45,207.4,46.1z"/>
<path fill="#000000" stroke="#000000" stroke-width="2" data-title="Layer 2" xs="2" d="M60.2,49c-3.8,1.1-4.2,1.7-3.9,5.4l0.3,3.1l-2.8,1.7c-1.5,1-2.9,2-3.1,2.3c-0.5,0.9-2.7,0.5-4.6-0.7c-1-0.7-2.2-1.2-2.6-1.2c-1,0-4.5,3.8-5.8,6.4c-1.6,3.1-1.4,4.2,1.2,6.1c2.2,1.5,2.3,1.7,2,3.5c-1,7.4-1,7.4-3.7,7.9c-1,0.1-2.3,0.6-3,1c-1.1,0.7-1.1,1-0.9,4.3c0.1,2.1,0.7,4.5,1.3,5.9l1.1,2.4l3.3-0.3l3.3-0.3l2.3,3.5c1.3,1.9,2.3,3.8,2.3,4.2s-0.5,1.6-1.2,2.6c-0.7,1-1.2,2.3-1.2,2.9c0,1.3,3.2,4.2,6.7,5.9c2.4,1.2,2.7,1.2,3.8,0.5c0.6-0.4,1.7-1.6,2.3-2.6c1-1.6,1.3-1.7,2.7-1.5c0.8,0.2,2.8,0.5,4.4,0.8c1.5,0.3,3,0.6,3.3,0.8c0.2,0.1,0.6,1.3,0.8,2.6c0.4,2.7,1.6,4.1,3.5,4.1c2,0,7.6-1.4,8.9-2.3c1.1-0.7,1.1-1,0.8-4l-0.3-3.3l3.6-2.4c2-1.3,3.8-2.3,4.1-2.3c0.3,0,1.4,0.5,2.4,1.2c1,0.7,2.4,1.2,3.1,1.2c2.2,0,6.7-6.4,6.7-9.5c0-1-0.5-1.7-2.3-2.9c-2.2-1.5-2.3-1.6-2-3.6c1.2-7.6,1.1-7.4,4.5-8c2.9-0.4,3.2-0.9,3.2-4.4c0-3.6-1.6-8.4-2.9-8.8c-0.5-0.1-2-0.1-3.2,0.2c-1.3,0.3-2.5,0.4-2.8,0.2c-0.7-0.4-4.9-7-4.9-7.7c0-0.3,0.5-1.5,1.2-2.5c0.7-1,1.2-2.3,1.2-2.8c0-2.1-6.8-7-9.7-7c-0.7,0-1.7,0.8-2.9,2.5c-1.5,2.1-2,2.5-2.9,2.2c-0.6-0.2-2.4-0.6-4-0.9c-1.6-0.3-3.2-0.8-3.5-1c-0.3-0.2-0.7-1.4-0.9-2.6c-0.1-1.2-0.6-2.6-1-2.9C67.6,48,63.5,48,60.2,49z M75.9,70c3,1.4,5.6,4.1,7.3,7.3c1.7,3.1,1.6,10,0,13.4c-1.5,3-4.2,5.8-7,7.3c-3.1,1.6-10.4,1.6-13.7,0C52,92.9,50.6,78.5,59.7,71.5C64.2,68.1,70.8,67.5,75.9,70z"/>
<path fill="#000000" stroke="#000000" stroke-width="2" data-title="Layer 3" xs="3" d="M136,79.7c-1.9,0.7-3.6,3.3-3.6,5.3c0,2.4,0.9,4,2.9,5.4l1.7,1.1h27.5h27.5v65.6c0,43.6,0.2,66.2,0.5,67.4c2,7.2,10.9,8.6,15.1,2.4c0.8-1.2,1.1-2.4,1.2-4.4c0-1.5,0-14.7,0-29.3c0-14.6,0.1-30,0.3-34.1l0.3-7.5h1.9h1.9v36.9v36.8l1.1,1.7c1.8,2.6,4,3.9,6.9,3.9c4.1,0,7.1-2.4,8.1-6.3c0.4-1.4,0.5-21.5,0.5-63.4V99.9h2h2v25.6v25.6l1.6,1.8c3.1,3.3,8.3,2.5,10-1.6c0.6-1.5,0.7-5.7,0.6-28.9c-0.2-30.6-0.1-29.7-4-35.3c-1.1-1.7-3.2-3.8-4.4-4.7c-4.8-3.3-2.6-3.1-54-3.1C158,79.2,136.6,79.4,136,79.7z"/>
<path fill="#000000" stroke="#000000" stroke-width="2" data-title="Layer 4" xs="4" d="M107.5,101.7c-1.7,0.4-2.2,1.2-2.2,3c0,2-0.7,3.6-1.6,3.6c-0.3,0-2.3,1-4.4,2.2l-3.7,2.3l-2.3-1.1l-2.3-1.1l-1.7,1.9c-2,2.4-4.6,7.4-4.6,9c0,0.8,0.5,1.5,1.7,2.2c0.9,0.5,1.8,1.2,1.9,1.6s0.2,2.9,0.1,5.7c-0.1,4.5-0.2,5.2-1,5.7c-0.5,0.3-1.4,1-2,1.6c-1.3,1.2-1.1,2.3,0.7,5.8c2.9,5.6,5,7.1,7.3,5.4c1.4-1.1,2.4-0.9,5.6,1.1c1.6,1,3.6,2.3,4.4,2.7c1.3,0.7,1.5,1.1,1.5,2.7c0,1,0.2,2.2,0.4,2.5c1,1.5,7.8,2.1,11.5,1c1.9-0.5,2.2-1,2.5-4.1c0.1-1.2,0.6-1.7,2.8-2.8c1.5-0.7,3.5-1.9,4.5-2.7l1.9-1.3l2.1,1c1.1,0.6,2.4,0.9,2.9,0.8c1.9-0.6,6.8-9.2,6.3-10.9c-0.2-0.5-1.1-1.4-2-2l-1.8-1.1l0.1-5.5l0.1-5.5l1.9-1.2c2.3-1.5,2.4-2.6,0.1-6.9c-3.1-5.9-4.1-6.5-7.9-4.9c-1.5,0.6-1.7,0.5-4.3-1.2c-1.5-1-3.4-2.1-4.2-2.4c-1.8-0.6-2.5-1.7-2.5-4c0-1-0.3-2-0.8-2.4C117.4,101.6,109.4,101.1,107.5,101.7z M117.9,118.5c1.1,0.6,2.7,1.8,3.6,2.7c8,7.9,3.1,21.8-8.1,22.9c-10.4,1.1-18-9.8-13.4-19.1c1.6-3.3,4.6-6.1,7.7-7C110.7,116.8,115.3,117.2,117.9,118.5z"/>
</g></g></g>
</svg>