<svg width="69" height="26" viewBox="0 0 69 26" fill="none" xmlns="http://www.w3.org/2000/svg">
<g filter="url(#filter0_d_2_3)">
<path d="M3.544 9.36C4.472 8.56 5.48 7.824 6.568 7.152C7.672 6.48 8.432 6.144 8.848 6.144C9.28 6.144 9.616 6.24 9.856 6.432C10.096 6.624 10.216 6.88 10.216 7.2C10.216 7.744 9.8 8.136 8.968 8.376C6.584 9.064 4.8 9.968 3.616 11.088C4.8 12.208 6.584 13.112 8.968 13.8C9.8 14.04 10.216 14.432 10.216 14.976C10.216 15.296 10.096 15.552 9.856 15.744C9.616 15.936 9.28 16.032 8.848 16.032C8.432 16.032 7.672 15.696 6.568 15.024C5.48 14.352 4.472 13.616 3.544 12.816C2.616 12.016 2.128 11.44 2.08 11.088C2.128 10.736 2.616 10.16 3.544 9.36Z" fill="url(#paint0_linear_2_3)"/>
<path d="M14.8171 9.648C14.8171 9.648 14.8491 12.064 14.9131 16.896C14.9131 17.232 14.8171 17.528 14.6251 17.784C14.4491 18.024 14.1931 18.144 13.8571 18.144C13.5211 18.144 13.2491 18.024 13.0411 17.784C12.8331 17.528 12.7291 17.232 12.7291 16.896L12.8491 9.648L12.7291 2.568C12.7291 2.232 12.8331 1.936 13.0411 1.68C13.2491 1.424 13.5211 1.296 13.8571 1.296C14.1931 1.296 14.4491 1.424 14.6251 1.68C14.8171 1.92 14.9131 2.256 14.9131 2.688C14.9131 3.12 14.8971 3.968 14.8651 5.232C14.8491 6.48 14.8411 7.264 14.8411 7.584C15.7371 6.08 17.0011 4.656 18.6331 3.312C20.2811 1.968 21.5931 1.296 22.5691 1.296C22.9371 1.296 23.2411 1.408 23.4811 1.632C23.7371 1.856 23.8651 2.144 23.8651 2.496C23.8651 2.848 23.7371 3.136 23.4811 3.36C23.2411 3.584 22.9931 3.696 22.7371 3.696C22.4811 3.696 22.2171 3.632 21.9451 3.504C21.6891 3.36 21.4011 3.288 21.0811 3.288C20.7611 3.288 20.2731 3.528 19.6171 4.008C18.9611 4.488 18.2571 5.128 17.5051 5.928C16.7851 6.728 16.2011 7.48 15.7531 8.184C20.5371 14.392 26.3211 19.088 33.1051 22.272C34.1451 22.752 34.6651 23.296 34.6651 23.904C34.6651 24.224 34.5531 24.48 34.3291 24.672C34.1051 24.864 33.7931 24.96 33.3931 24.96C32.4011 24.96 30.7371 24.128 28.4011 22.464C26.0811 20.8 23.6731 18.808 21.1771 16.488C20.0411 15.448 18.8651 14.272 17.6491 12.96C16.4491 11.632 15.5051 10.528 14.8171 9.648ZM42.9604 3.264L42.6724 3.288C42.8484 8.248 43.0324 11.808 43.2244 13.968C43.2724 14.496 43.4964 15.016 43.8964 15.528C44.2964 16.04 44.4964 16.48 44.4964 16.848C44.4964 17.2 44.3844 17.504 44.1604 17.76C43.9524 18.016 43.6644 18.144 43.2964 18.144C42.9444 18.144 42.6404 17.928 42.3844 17.496C42.1444 17.048 42.0004 16.568 41.9524 16.056C41.5684 10.728 41.0884 6.688 40.5124 3.936C39.0564 4.672 37.6324 5.944 36.2404 7.752C37.5044 9.752 38.1364 11.456 38.1364 12.864C38.1364 14.256 37.6644 15.464 36.7204 16.488C35.7764 17.496 34.8964 18 34.0804 18C33.2644 18 32.6324 17.736 32.1844 17.208C31.7524 16.68 31.5364 16.032 31.5364 15.264C31.5364 14.48 31.7924 13.496 32.3044 12.312C32.8324 11.112 33.5204 9.864 34.3684 8.568C33.6324 7.464 32.7844 6.488 31.8244 5.64C30.8644 4.792 29.9284 4.208 29.0164 3.888C29.0164 3.936 28.9524 4.384 28.8244 5.232C28.2644 8.736 27.8804 13.344 27.6724 19.056C27.5924 21.632 27.5284 23.128 27.4804 23.544C27.4484 23.96 27.3204 24.28 27.0964 24.504C26.8724 24.744 26.6084 24.864 26.3044 24.864C26.0164 24.864 25.7444 24.744 25.4884 24.504C25.2484 24.28 25.1284 23.904 25.1284 23.376C25.1284 22.864 25.3444 21.328 25.7764 18.768C26.6724 13.456 27.1524 8.392 27.2164 3.576C26.5604 3.432 26.2324 3.024 26.2324 2.352C26.2324 2.048 26.3764 1.8 26.6644 1.608C26.9524 1.4 27.3044 1.296 27.7204 1.296C28.9524 1.296 30.2804 1.824 31.7044 2.88C33.1444 3.92 34.4404 5.232 35.5924 6.816C36.8084 5.2 38.0644 3.88 39.3604 2.856C40.6564 1.816 41.8564 1.296 42.9604 1.296C43.7124 1.296 44.0884 1.6 44.0884 2.208C44.0884 2.496 43.9604 2.744 43.7044 2.952C43.4644 3.16 43.2164 3.264 42.9604 3.264ZM36.2404 13.704C36.2404 12.488 35.8164 11.112 34.9684 9.576C33.6724 11.656 33.0244 13.224 33.0244 14.28C33.0244 14.856 33.1684 15.36 33.4564 15.792C33.7604 16.224 34.1364 16.44 34.5844 16.44C35.0324 16.44 35.4164 16.16 35.7364 15.6C36.0724 15.024 36.2404 14.392 36.2404 13.704Z" fill="url(#paint1_linear_2_3)"/>
<path d="M48.0299 18.144C47.4219 18.144 47.1179 17.832 47.1179 17.208C47.1179 16.888 47.2939 16.448 47.6459 15.888C47.9979 15.312 48.6299 14.36 49.5419 13.032C50.4539 11.704 51.2139 10.52 51.8219 9.48C52.4459 8.424 52.9819 7.456 53.4299 6.576C53.8939 5.696 54.2619 4.976 54.5339 4.416C54.8219 3.84 55.1099 3.296 55.3979 2.784C55.9579 1.792 56.4859 1.296 56.9819 1.296C57.5899 1.296 57.8939 1.608 57.8939 2.232C57.8939 2.552 57.7179 3 57.3659 3.576C57.0139 4.136 56.3819 5.08 55.4699 6.408C54.5579 7.736 53.7899 8.928 53.1659 9.984C52.5579 11.024 52.0219 11.984 51.5579 12.864C51.1099 13.744 50.7419 14.472 50.4539 15.048C50.1819 15.608 49.9019 16.144 49.6139 16.656C49.0539 17.648 48.5259 18.144 48.0299 18.144Z" fill="url(#paint2_linear_2_3)"/>
<path d="M66.0801 12.816C65.1521 13.616 64.1361 14.352 63.0321 15.024C61.9441 15.696 61.1841 16.032 60.7521 16.032C60.3361 16.032 60.0081 15.936 59.7681 15.744C59.5281 15.552 59.4081 15.296 59.4081 14.976C59.4081 14.432 59.8241 14.04 60.6561 13.8C63.0401 13.112 64.8241 12.208 66.0081 11.088C64.8241 9.968 63.0401 9.064 60.6561 8.376C59.8241 8.136 59.4081 7.744 59.4081 7.2C59.4081 6.88 59.5281 6.624 59.7681 6.432C60.0081 6.24 60.3361 6.144 60.7521 6.144C61.1841 6.144 61.9441 6.48 63.0321 7.152C64.1361 7.824 65.1521 8.56 66.0801 9.36C67.0081 10.16 67.4961 10.736 67.5441 11.088C67.4961 11.44 67.0081 12.016 66.0801 12.816Z" fill="url(#paint3_linear_2_3)"/>
</g>
<defs>
<filter id="filter0_d_2_3" x="0.580002" y="0.296" width="67.4641" height="25.664" filterUnits="userSpaceOnUse" color-interpolation-filters="sRGB">
<feFlood flood-opacity="0" result="BackgroundImageFix"/>
<feColorMatrix in="SourceAlpha" type="matrix" values="0 0 0 0 0 0 0 0 0 0 0 0 0 0 0 0 0 0 127 0" result="hardAlpha"/>
<feOffset dx="-0.5"/>
<feGaussianBlur stdDeviation="0.5"/>
<feComposite in2="hardAlpha" operator="out"/>
<feColorMatrix type="matrix" values="0 0 0 0 0.206322 0 0 0 0 0.0602778 0 0 0 0 0.516667 0 0 0 0.5 0"/>
<feBlend mode="normal" in2="BackgroundImageFix" result="effect1_dropShadow_2_3"/>
<feBlend mode="normal" in="SourceGraphic" in2="effect1_dropShadow_2_3" result="shape"/>
</filter>
<linearGradient id="paint0_linear_2_3" x1="-1.83333" y1="-1" x2="11.4216" y2="46.4079" gradientUnits="userSpaceOnUse">
<stop stop-color="#9104FF"/>
<stop offset="1" stop-color="#350F84"/>
</linearGradient>
<linearGradient id="paint1_linear_2_3" x1="12.5" y1="-1.5" x2="12.2281" y2="21.0506" gradientUnits="userSpaceOnUse">
<stop stop-color="#FF04D7"/>
<stop offset="1" stop-color="#3500A5"/>
</linearGradient>
<linearGradient id="paint2_linear_2_3" x1="-1.83333" y1="-1" x2="11.4216" y2="46.4079" gradientUnits="userSpaceOnUse">
<stop stop-color="#FF0404"/>
<stop offset="1" stop-color="#350F84"/>
</linearGradient>
<linearGradient id="paint3_linear_2_3" x1="-1.83333" y1="-1" x2="11.4216" y2="46.4079" gradientUnits="userSpaceOnUse">
<stop/>
<stop offset="1" stop-color="#350F84"/>
</linearGradient>
</defs>
</svg>
