<svg width="38" height="42" viewBox="0 0 38 42" fill="none" xmlns="http://www.w3.org/2000/svg">
<path d="M18.3361 29.2022L36.4837 1.54866C36.9201 0.88365 36.4431 0 35.6476 0H25.2442C24.895 0 24.5711 0.182172 24.3897 0.480583L16.6455 13.221C16.5503 13.3775 16.5 13.5572 16.5 13.7404V28.6536C16.5 29.6467 17.7911 30.0325 18.3361 29.2022Z" fill="#AC6DA6"/>
<path d="M0 1.1287C0 0.528641 0.528367 0.0623457 1.12168 0.152088C7.90896 1.17871 10.1945 3.64787 11 11V40.3713C11 40.9714 10.4716 41.4377 9.87832 41.3479C3.09104 40.3213 0.805486 37.8521 0 30.5V1.1287Z" fill="#2C6397"/>
<path d="M17.5169 39.9512L25.2598 28.1578C25.6341 27.5878 26.4565 27.5513 26.8798 28.0859L36.2168 39.8793C36.7359 40.5348 36.269 41.5 35.4328 41.5H18.3528C17.5573 41.5 17.0803 40.6162 17.5169 39.9512Z" fill="#2CAB7D"/>
</svg>
