<svg width="25" height="28" viewBox="0 0 25 28" fill="none" xmlns="http://www.w3.org/2000/svg">
<path d="M12.836 18.5355L23.9837 1.54866C24.4201 0.88365 23.9431 0 23.1476 0H17.0169C16.6677 0 16.3438 0.182172 16.1624 0.480583L11.1455 8.73421C11.0503 8.89075 11 9.07043 11 9.25363V17.9869C11 18.98 12.2911 19.3659 12.836 18.5355Z" fill="#AC6DA6"/>
<path d="M0 1.12871C0 0.528643 0.527708 0.0605249 1.11931 0.160932C5.35684 0.880127 6.81132 2.56857 7.33333 7.33333V26.538C7.33333 27.138 6.80563 27.6061 6.21402 27.5057C1.9765 26.7865 0.522019 25.0981 0 20.3333V1.12871Z" fill="#2C6397"/>
<path d="M12.0169 26.1178L16.5865 19.1578C16.9607 18.5878 17.7832 18.5513 18.2064 19.0859L23.7168 26.0459C24.2359 26.7015 23.769 27.6667 22.9328 27.6667H12.8528C12.0573 27.6667 11.5803 26.7828 12.0169 26.1178Z" fill="#2CAB7D"/>
</svg>
