<svg width="20" height="23" viewBox="0 0 20 23" fill="none" xmlns="http://www.w3.org/2000/svg">
<path d="M10.636 14.2689L18.9837 1.54866C19.4201 0.88365 18.9431 0 18.1476 0H13.726C13.3768 0 13.0529 0.182172 12.8715 0.480583L8.94547 6.9395C8.85031 7.09605 8.79999 7.27572 8.79999 7.45892V13.7202C8.79999 14.7134 10.0911 15.0992 10.636 14.2689Z" fill="#AC6DA6"/>
<path d="M0 1.1287C0 0.52864 0.52666 0.0586077 1.11667 0.167992C4.33647 0.764924 5.45827 2.13899 5.86667 5.86667V21.0046C5.86667 21.6047 5.34001 22.0747 4.75 21.9653C1.5302 21.3684 0.408398 19.9943 0 16.2667V1.1287Z" fill="#2C6397"/>
<path d="M9.81688 20.5845L13.1171 15.5578C13.4914 14.9878 14.3138 14.9513 14.7371 15.4859L18.7168 20.5126C19.2358 21.1682 18.7689 22.1333 17.9328 22.1333H10.6528C9.8573 22.1333 9.38027 21.2495 9.81688 20.5845Z" fill="#2CAB7D"/>
</svg>
